<?xml version="1.0" encoding="UTF-8"?>
<svg xmlns="http://www.w3.org/2000/svg" viewBox="0 0 560 280" width="560" height="280">
  <defs>
    <linearGradient id="bg-sensing-river" x1="0" y1="0" x2="0" y2="1">
      <stop offset="0%" stop-color="#141414"/>
      <stop offset="45%" stop-color="#0a0a0a"/>
      <stop offset="100%" stop-color="#050505"/>
    </linearGradient>
    <radialGradient id="ambient-sensing-river" cx="50%" cy="42%" r="65%">
      <stop offset="0%" stop-color="#ffffff" stop-opacity="0.06"/>
      <stop offset="55%" stop-color="#ffffff" stop-opacity="0"/>
      <stop offset="100%" stop-color="#000000" stop-opacity="0.28"/>
    </radialGradient>
  </defs>
  <rect width="560" height="280" fill="url(#bg-sensing-river)"/>
  <rect width="560" height="280" fill="url(#ambient-sensing-river)"/>
  
    <g opacity="0.28" stroke-linecap="round" stroke-linejoin="round" fill="none">
      <path d="M186,268 C184,220 188,170 192,130 C196,90 198,55 200,42 L204,42 C208,90 210,130 214,170 C218,220 216,268 214,268 Z" fill="rgba(55,52,48,0.55)" stroke="rgba(200,195,185,0.2)" stroke-width="0.5"/>
      <path d="M200,255 Q165,275 130,268" stroke="rgba(180,175,165,0.35)" stroke-width="1.2"/>
      <path d="M200,255 Q235,275 270,268" stroke="rgba(180,175,165,0.35)" stroke-width="1.2"/>
      <path d="M194,175 Q140,155 95,135" stroke="rgba(180,175,165,0.3)" stroke-width="1.4"/>
      <path d="M206,175 Q260,155 305,135" stroke="rgba(180,175,165,0.3)" stroke-width="1.4"/>
      <path d="M198,115 Q198,85 200,62" stroke="rgba(180,175,165,0.28)" stroke-width="1.2"/>
      <ellipse cx="200" cy="78" rx="72" ry="38" fill="rgba(40,38,35,0.35)" stroke="rgba(180,175,165,0.15)" stroke-width="0.5"/>
      <ellipse cx="145" cy="105" rx="42" ry="26" fill="rgba(40,38,35,0.2)" stroke="rgba(180,175,165,0.12)" stroke-width="0.4"/>
      <ellipse cx="255" cy="105" rx="42" ry="26" fill="rgba(40,38,35,0.2)" stroke="rgba(180,175,165,0.12)" stroke-width="0.4"/>
    </g>
  <g stroke-linecap="round" stroke-linejoin="round" fill="none">
    <circle cx="300" cy="130" r="50" fill="rgba(248,244,236,0.020999999999999998)"/><circle cx="300" cy="130" r="27.500000000000004" fill="rgba(248,244,236,0.063)"/><circle cx="300" cy="130" r="11" fill="rgba(255,252,247,0.1925)"/><path d="M20,200 Q140,150 220,160 T480,70" stroke="rgba(245,240,232,0.85)" stroke-width="1.4"/><path d="M20,210 Q160,170 240,180 T500,90" stroke="rgba(200,200,200,0.28)" stroke-width="0.6"/><circle cx="220" cy="160" r="8" fill="rgba(248,244,236,0.054)"/><circle cx="220" cy="160" r="4.4" fill="rgba(248,244,236,0.162)"/><circle cx="220" cy="160" r="1.76" fill="rgba(255,252,247,0.49500000000000005)"/><circle cx="380" cy="95" r="6" fill="rgba(248,244,236,0.048)"/><circle cx="380" cy="95" r="3.3000000000000003" fill="rgba(248,244,236,0.144)"/><circle cx="380" cy="95" r="1.32" fill="rgba(255,252,247,0.44000000000000006)"/><circle cx="195" cy="155" r="28" fill="rgba(248,244,236,0.024)"/><circle cx="195" cy="155" r="15.400000000000002" fill="rgba(248,244,236,0.072)"/><circle cx="195" cy="155" r="6.16" fill="rgba(255,252,247,0.22000000000000003)"/><path d="M195,155 m-22,0 a22,22 0 1,0 44,0" stroke="rgba(255,255,255,0.12)" stroke-width="0.8"/>
  </g>
</svg>