<?xml version="1.0" encoding="UTF-8"?>
<svg xmlns="http://www.w3.org/2000/svg" viewBox="0 0 560 280" width="560" height="280">
  <defs>
    <linearGradient id="bg-wind-cloud" x1="0" y1="0" x2="0" y2="1">
      <stop offset="0%" stop-color="#141414"/>
      <stop offset="45%" stop-color="#0a0a0a"/>
      <stop offset="100%" stop-color="#050505"/>
    </linearGradient>
    <radialGradient id="ambient-wind-cloud" cx="50%" cy="42%" r="65%">
      <stop offset="0%" stop-color="#ffffff" stop-opacity="0.06"/>
      <stop offset="55%" stop-color="#ffffff" stop-opacity="0"/>
      <stop offset="100%" stop-color="#000000" stop-opacity="0.28"/>
    </radialGradient>
  </defs>
  <rect width="560" height="280" fill="url(#bg-wind-cloud)"/>
  <rect width="560" height="280" fill="url(#ambient-wind-cloud)"/>
  
    <g opacity="0.28" stroke-linecap="round" stroke-linejoin="round" fill="none">
      <path d="M186,268 C184,220 188,170 192,130 C196,90 198,55 200,42 L204,42 C208,90 210,130 214,170 C218,220 216,268 214,268 Z" fill="rgba(55,52,48,0.55)" stroke="rgba(200,195,185,0.2)" stroke-width="0.5"/>
      <path d="M200,255 Q165,275 130,268" stroke="rgba(180,175,165,0.35)" stroke-width="1.2"/>
      <path d="M200,255 Q235,275 270,268" stroke="rgba(180,175,165,0.35)" stroke-width="1.2"/>
      <path d="M194,175 Q140,155 95,135" stroke="rgba(180,175,165,0.3)" stroke-width="1.4"/>
      <path d="M206,175 Q260,155 305,135" stroke="rgba(180,175,165,0.3)" stroke-width="1.4"/>
      <path d="M198,115 Q198,85 200,62" stroke="rgba(180,175,165,0.28)" stroke-width="1.2"/>
      <ellipse cx="200" cy="78" rx="72" ry="38" fill="rgba(40,38,35,0.35)" stroke="rgba(180,175,165,0.15)" stroke-width="0.5"/>
      <ellipse cx="145" cy="105" rx="42" ry="26" fill="rgba(40,38,35,0.2)" stroke="rgba(180,175,165,0.12)" stroke-width="0.4"/>
      <ellipse cx="255" cy="105" rx="42" ry="26" fill="rgba(40,38,35,0.2)" stroke="rgba(180,175,165,0.12)" stroke-width="0.4"/>
    </g>
  <g stroke-linecap="round" stroke-linejoin="round" fill="none">
    <ellipse cx="230" cy="105" rx="52" ry="18" stroke="rgba(245,240,232,0.55)" stroke-width="0.9"/><ellipse cx="290" cy="100" rx="40" ry="15" stroke="rgba(245,240,232,0.45)" stroke-width="0.8"/><ellipse cx="350" cy="108" rx="48" ry="17" stroke="rgba(200,200,200,0.3)" stroke-width="0.7"/><path d="M20,75 Q220,55 420,70" stroke="rgba(200,200,200,0.28)" stroke-width="0.6"/>
  </g>
</svg>